/* XPM */
static char *c8ac9d31e6644f958ab5aacf1589b6465hUSScqZefAGy1p8[] = {
/* columns rows colors chars-per-pixel */
"64 64 113 2 ",
"   c #838383",
".  c #818181",
"X  c gray51",
"o  c #C7C8C7",
"O  c #BFC0BF",
"+  c gray52",
"@  c #B8B9B8",
"#  c #C8C9C8",
"$  c #E3E4E3",
"%  c #D8D9D8",
"&  c #868686",
"*  c #CECFCE",
"=  c #E4E5E4",
"-  c #E1E2E1",
";  c #D6D7D6",
":  c #CDCDCD",
">  c #E2E3E2",
",  c #E0E1E0",
"<  c #D0D1D0",
"1  c #B9BAB9",
"2  c #C9CAC9",
"3  c #AAABAA",
"4  c #A8A9A8",
"5  c #BCBDBC",
"6  c #A1A2A1",
"7  c #ACADAC",
"8  c #BDBEBD",
"9  c #A3A4A3",
"0  c #ABACAB",
"q  c #B7B8B7",
"w  c #AFB0AF",
"e  c #AEAFAE",
"r  c #B6B7B6",
"t  c #ADAEAD",
"y  c #B0B1B0",
"u  c #B5B6B5",
"i  c #A4A5A4",
"p  c gray64",
"a  c #A2A3A2",
"s  c #A7A8A7",
"d  c #A5A6A5",
"f  c #BABBBA",
"g  c #DFE0DF",
"h  c #B1B2B1",
"j  c #C1C2C1",
"k  c #898989",
"l  c #9B9C9B",
"z  c gray59",
"x  c #8E8E8E",
"c  c #DEDFDE",
"v  c #828182",
"b  c #DCDDDC",
"n  c #8A8B8A",
"m  c #848484",
"M  c gray61",
"N  c #979797",
"B  c gray56",
"V  c #B2B3B2",
"C  c #DBDCDB",
"Z  c #D2D3D2",
"A  c #CBCCCB",
"S  c #CACBCA",
"D  c #A9AAA9",
"F  c #C4C5C4",
"G  c #D5D6D5",
"H  c #CFD0CF",
"J  c #CCCDCC",
"K  c #C5C6C5",
"L  c #BEBFBE",
"P  c #C3C4C3",
"I  c #D3D4D3",
"U  c #ACAEAC",
"Y  c #C0C1C0",
"T  c gray62",
"R  c #9B9B9B",
"E  c #A0A0A0",
"W  c #888888",
"Q  c #808080",
"!  c #959595",
"~  c #8D8D8D",
"^  c #959695",
"/  c #818081",
"(  c #8D8E8D",
")  c #D9DAD9",
"_  c #999A99",
"`  c #929392",
"'  c gray55",
"]  c #929292",
"[  c #919291",
"{  c #909090",
"}  c gray50",
"|  c #BBBCBB",
" . c #AFAFAF",
".. c gray71",
"X. c #E5E6E5",
"o. c #D7D8D7",
"O. c #C6C7C6",
"+. c gray65",
"@. c gray58",
"#. c #CDCECD",
"$. c #D1D2D1",
"%. c #A0A1A0",
"&. c #909190",
"*. c #939393",
"=. c #A6A7A6",
"-. c #B3B4B3",
";. c #B4B5B4",
":. c #9D9E9D",
">. c #9E9F9E",
",. c #8F908F",
"<. c #989898",
"1. c #9A9A9A",
"2. c white",
/* pixels */
"                                                                                                                                ",
"                                                                                                                                ",
"                                                                                                                                ",
". . . . . . . . . . . . . . . . . . . . . . . . . . . . . . . . . . . . . . . . . . . . . . . X       . . . . . . . . . . . . . ",
"o o o o o o o o o o o o o o o o o o o o o o o o o o o o o o o o o o o o o o o o o o o o o o O + X   X @ # o o o o o o o o o o o ",
"$ $ $ $ $ $ $ $ $ $ $ $ $ $ $ $ $ $ $ $ $ $ $ $ $ $ $ $ $ $ $ $ $ $ $ $ $ $ $ $ $ $ $ $ $ $ % & X   X * = $ $ $ $ $ $ $ $ $ $ $ ",
"- - - - - - - - - - - - - - - - - - - - - - - - - - - - - - - - - - - - - - - - - - - - - - ; & X   X : > - - - - - - - - - - - ",
"> > > > > > > > > > > > > > > > > > > > > > > > > > > > > > > > > > > > > > > > > > > , - - ; & X   X * = > > > > > > > > > > > ",
"# # # # # # # # # # # # # # # # # # # # # # # # # # # # # # # # # # # # # # # # # o < - - - ; & X   X 1 2 # # # # # # # # # # # ",
"3 3 3 3 3 3 3 3 3 3 3 3 3 3 3 3 3 3 3 3 3 3 3 3 3 3 3 3 3 3 3 3 3 3 3 3 3 3 3 3 3 4 5 > - - ; & X   X 6 3 3 3 3 3 3 3 3 3 3 3 3 ",
"7 7 7 7 7 7 7 7 7 7 7 7 7 7 7 7 7 7 7 7 7 7 7 7 7 7 7 7 7 7 7 7 7 7 7 7 7 7 7 7 7 3 8 > - - ; & X   X 9 7 7 7 7 7 7 7 7 7 7 7 7 ",
"0 0 0 0 0 7 7 7 7 7 7 7 0 0 0 0 0 0 7 7 7 7 7 7 7 0 0 0 0 0 0 7 7 7 7 7 7 7 7 0 7 3 8 > - - ; & X   X 9 7 7 0 7 7 7 7 7 0 7 7 7 ",
"q q q q w 0 7 7 7 7 7 0 e q q q r t 0 7 7 7 7 7 0 y q q q u 7 7 7 0 i p 9 a 4 7 7 3 8 > - - ; & X   X 9 7 7 7 s a 9 p d 7 7 7 7 ",
"- - - > f 3 7 7 7 7 7 0 q - - - g h 0 7 7 7 7 7 3 j > - - % 7 7 7 0 k X X . l t 7 3 8 > - - ; & X   X 9 7 7 t z . X . x 7 7 7 7 ",
"- - - - f 3 7 7 7 7 7 0 q - - - c h 0 7 7 7 7 7 3 j > - - % 7 7 7 0 k X   . l t 7 3 8 > - - ; & X   X 9 7 7 t z .   X x 7 7 7 7 ",
"- - - - f 3 7 7 0 0 0 0 q - - - c h 0 7 7 0 0 0 3 j > - - % 7 7 7 0 k X X . l t 7 3 8 > - - ; & X   X 9 7 7 t z . X v x 7 7 7 7 ",
"c c c g 1 3 7 0 t e e t @ g c c b h 0 7 0 t e e 7 j , c g ; 7 7 7 0 n m m   M t 7 3 8 > - - ; & X   X 9 7 7 t N   m   B 7 7 7 7 ",
"h h h V t 0 7 3 j b C C Z h h h h 7 0 7 3 A b C b S y h V y 7 7 7 0 4 s s s 3 7 7 3 8 > - - ; & X   X 9 7 7 7 D s s s 4 7 7 7 7 ",
"0 0 0 0 0 7 7 3 F $ - > G 0 0 0 0 0 7 7 3 H > - $ A D 0 0 0 0 7 7 7 7 7 7 7 7 0 7 3 8 > - - ; & X   X 9 7 7 0 7 7 7 7 7 0 7 7 7 ",
"7 7 7 7 7 7 7 3 F > - - G 0 7 7 7 7 7 7 3 H > - > A 3 7 7 7 7 7 7 7 7 7 7 7 7 7 7 3 8 > - - ; & X   X 9 7 7 7 7 7 7 7 7 7 7 7 7 ",
"7 7 7 7 3 3 3 4 F = > $ ; 0 7 7 0 3 3 3 4 H = > = J 3 7 7 7 7 7 7 7 7 7 7 7 7 7 7 3 8 > - - ; & X   X 9 7 7 7 7 7 7 7 7 7 7 7 7 ",
"7 7 7 0 K < H H o 8 8 L 1 0 7 0 t A H H H P 8 8 L r 0 7 7 7 7 7 7 7 7 7 7 7 7 7 7 3 8 > - - ; & X   X 9 7 7 7 7 7 7 7 7 7 7 7 7 ",
"7 7 7 0 I $ > = # 4 3 3 3 7 7 0 e b > > = 8 4 3 3 0 7 7 7 7 7 7 7 7 7 7 7 7 7 7 7 3 8 > - - ; & X   X 9 7 7 7 7 7 7 7 7 7 7 7 7 ",
"7 7 7 0 Z > - > # 3 7 7 7 7 7 0 e C - - > 8 3 7 7 7 7 7 7 7 7 7 7 7 7 7 7 7 7 7 7 3 8 > - - ; & X   X 9 7 7 7 7 7 7 7 7 7 7 7 7 ",
"3 3 3 D I = > = 2 3 7 7 0 3 3 3 7 b $ > = L 3 7 7 7 7 7 7 7 7 7 7 7 t t t t 7 0 7 3 8 > - - ; & X   X 9 7 7 0 7 t t t U 0 7 7 7 ",
"j j j Y # J A J 8 3 7 0 y j j j j S A A J r 0 7 7 7 7 7 7 7 7 7 7 0 T l l R d 7 7 3 8 > - - ; & X   X 9 7 7 7 9 R l R E 7 7 7 7 ",
"> > > $ 1 4 3 3 0 7 7 0 q > > > , y D 3 3 0 7 7 7 7 7 7 7 7 7 7 7 0 W . . Q R t 7 3 8 > - - ; & X   X 9 7 7 t ! Q . Q ~ 7 7 7 7 ",
"- - - - f 3 7 7 7 7 7 0 q - - - c h 0 7 7 7 7 7 7 7 7 7 7 7 7 7 7 0 k X   . l t 7 3 8 > - - ; & X   X 9 7 7 t z .   X x 7 7 7 7 ",
"- - - > f 3 7 7 7 7 7 0 q - - - g V 0 7 7 7 7 7 7 7 7 7 7 7 7 7 7 0 k v X . l t 7 3 8 > - - ; & X   X 9 7 7 t ^ / X . ( 7 7 7 7 ",
"% % % ) @ 3 7 7 7 7 7 0 u % % % ; y 0 7 7 7 7 7 7 7 7 7 7 7 7 7 7 0 B k k W T t 7 3 8 > - - ; & X   X 9 7 7 t _ W k W ` 7 7 7 7 ",
"7 7 7 7 7 0 7 7 7 7 7 0 7 7 7 7 7 7 0 7 7 7 7 7 7 7 7 7 7 7 7 7 7 0 0 0 0 0 0 7 7 3 8 > - - ; & X   X 9 7 7 7 0 0 0 0 0 7 7 7 7 ",
"7 7 7 7 7 7 7 7 7 7 7 7 7 7 7 7 7 7 7 7 7 7 7 7 7 7 7 7 7 7 7 7 7 7 7 7 7 7 7 7 7 3 8 > - - ; & X   X 9 7 7 7 7 7 7 7 7 7 7 7 7 ",
"7 7 7 7 7 7 7 7 7 7 7 7 7 7 7 7 7 7 7 7 7 7 7 7 7 7 7 7 7 7 7 7 7 7 7 7 7 7 7 7 7 3 8 > - - ; & X   X 9 7 7 7 7 7 7 7 7 7 7 7 7 ",
"0 0 0 0 0 0 0 0 0 0 0 0 0 0 0 0 0 0 0 0 0 0 0 0 0 0 0 0 0 0 0 0 0 0 0 0 0 0 0 0 0 D 5 , g , G & X   X a 7 0 0 0 0 0 0 0 0 0 0 0 ",
"k k k k k k k k k k k k k k k k k k k k k k k k k k k k k k k k k k k k k k k k k k ' ] [ ] {   X   X W k k k k k k k k k k k k ",
"X X X X X X X X X X X X X X X X X X X X X X X X X X X X X X X X X X X X X X X X X X X . . . v X       X X X X X X X X X X X X X ",
"                                                                                                                                ",
"} } } } } } } } } } } } Q       X Q } } } } } } } } } } } } } } } } } } } } } } } } } } } } } } } } } } } } } } } } } } } } } } ",
"| | | | | | | | | | | 5  .X   X + ..| | | | | | | | | | | | | | | | | | | | | | | | | | | | | | | | | | | | | | | | | | | | | | ",
"= = = = = = = = = = = X.H X   X & ) = = = = = = = = = = = = = = = = = = = = = = = = = = = = = = = = = = = = = = = = = = = = = = ",
"- - - - - - - - - - - > : X   X & ; - - - - - - - - - - - - - - - - - - - - - - - - - - - - - - - - - - - - - - - - - - - - - - ",
"> > > > > > > > - , - > : X   X & o.$ > > > > > > > > > > > > > > > > > > > > > > > > > > > > > > > > > > > > > > > > > > > > > ",
"H H H H H H H * o.- - > : X   X & O.H H H H H H H H H H H H H H H H H H H H H H H H H H H H H H H H H H H H H H H H H H H H H H ",
"3 3 3 3 3 3 3 4 P > - > : X   X m +.3 3 3 3 3 3 3 3 3 3 3 3 3 3 3 3 3 3 3 3 3 3 3 3 3 3 3 3 3 3 3 3 3 3 3 3 3 3 3 3 3 3 3 3 3 3 ",
"7 7 7 7 7 7 7 3 F > - > : X   X m s 7 7 7 7 7 7 7 7 7 7 7 7 7 7 7 7 7 7 7 7 7 7 7 7 7 7 7 7 7 7 7 7 7 7 7 7 7 7 7 7 7 7 7 7 7 7 ",
"7 7 7 7 7 0 7 3 F > - > : X   X m s 7 7 0 7 7 7 7 7 0 7 7 7 7 7 7 7 7 7 7 7 0 0 0 0 0 7 7 7 7 7 7 7 7 7 7 7 7 0 0 0 0 0 7 7 7 7 ",
"s s s s 3 7 7 3 F > - > : X   X m s 7 7 7 4 s s s D 7 7 7 7 7 7 7 7 7 7 7 0 w V h V w 0 7 7 7 7 7 7 7 7 7 7 0 w V h V y 0 7 7 7 ",
"m m m   6 7 7 3 F > - > : X   X m s 7 7 t [   m   @.t 7 7 7 7 7 7 7 7 7 7 3 S , c , #.3 7 7 7 7 7 7 7 7 7 7 3 o , c , $.0 7 7 7 ",
"X X X X %.7 7 3 F > - > : X   X m s 7 7 t &.. X . *.t 7 7 7 7 7 7 7 7 7 7 3 A > - > H 3 7 7 7 7 7 7 7 7 7 7 3 # > - > Z 0 7 7 7 ",
"      X %.7 7 3 F > - > : X   X m s 7 7 t &..   . *.t 7 7 7 7 7 7 7 7 7 7 3 A > - > H 3 7 7 7 7 7 7 7 7 7 7 3 # > - > Z 0 7 7 7 ",
"X X X X %.7 7 3 F > - > : X   X m s 7 7 t { . X . *.t 7 7 7 7 7 7 0 0 0 0 3 A > - > H 3 7 7 7 7 7 7 7 0 0 0 D # $ - > Z 0 7 7 7 ",
"9 9 9 p D 7 7 3 F > - > : X   X m s 7 7 7 =.p 9 a =.7 7 7 7 7 7 7 7 H ; G ; P r q q -.0 7 7 7 7 7 7 0 J ; G ; K r q q ;.0 7 7 7 ",
"7 7 7 7 7 0 7 3 F > - > : X   X m s 7 7 0 7 7 7 7 7 0 7 7 7 7 7 7 7 ) > - $ Y D 0 0 0 7 7 7 7 7 7 7 0 ; > - $ F D 0 0 0 7 7 7 7 ",
"7 7 7 7 7 7 7 3 F > - > : X   X m s 7 7 7 7 7 7 7 7 7 7 7 7 7 7 7 7 % - - > j 3 7 7 7 7 7 7 7 7 7 7 0 G - - > F 3 7 7 7 7 7 7 7 ",
"t t t t 7 0 7 3 F > - > : X   X m s 7 7 0 U t t t 7 0 7 7 0 3 3 3 3 ) $ > = j 3 7 7 7 7 7 7 0 3 3 3 D ; $ > = K 3 7 7 7 7 7 7 7 ",
"z z z ^ +.7 7 3 F > - > : X   X m s 7 7 7 :.! z ! >.7 7 0 y o # # # K F F K u 0 7 7 7 7 7 0 w o # # # K F F K q 0 7 7 7 7 7 7 7 ",
". . . Q %.t 7 3 F > - > : X   X m s 7 7 t ,.Q . Q ] t 7 0 ;.> > > > -.D 3 3 0 7 7 7 7 7 7 0 V , > > $ r D 3 3 0 7 7 7 7 7 7 7 7 ",
"      X %.7 7 3 F > - > : X   X m s 7 7 t &..   . *.t 7 0 ;., - - , ;.0 7 7 7 7 7 7 7 7 7 0 h c - - - q 0 7 7 7 7 7 7 7 7 7 7 7 ",
"X X X . %.U 7 3 F > - > : X   X m s 7 7 t { Q X Q ` t 7 0 ;.- > > - ;.0 7 7 7 7 7 7 7 7 7 0 V , > > > q 0 7 7 7 7 7 7 7 7 7 7 7 ",
"x x x ~ 9 7 7 3 F > - > : X   X m s 7 7 7 <.~ x ~ 1.t 7 0 V Z Z Z Z V 0 7 7 7 7 7 7 7 7 7 0 y $.Z Z Z ;.0 7 7 7 7 7 7 7 7 7 7 7 ",
"7 7 7 7 7 0 7 3 F > - > : X   X m s 7 7 0 7 7 7 7 7 0 7 7 0 0 0 0 0 0 7 7 7 7 7 7 7 7 7 7 7 0 0 0 0 0 0 7 7 7 7 7 7 7 7 7 7 7 7 ",
"7 7 7 7 7 7 7 3 F > - > : X   X m s 7 7 7 7 7 7 7 7 7 7 7 7 7 7 7 7 7 7 7 7 7 7 7 7 7 7 7 7 7 7 7 7 7 7 7 7 7 7 7 7 7 7 7 7 7 7 ",
"7 7 7 7 7 7 7 3 F > - > : X   X m s 7 7 7 7 7 7 7 7 7 7 7 7 7 7 7 7 7 7 7 7 7 7 7 7 7 7 7 7 7 7 7 7 7 7 7 7 7 7 7 7 7 7 7 7 7 7 ",
"7 7 7 7 7 7 7 3 F > - > : X   X m s 7 7 7 7 7 7 7 7 7 7 7 7 7 7 7 7 7 7 7 7 7 7 7 7 7 7 7 7 7 7 7 7 7 7 7 7 7 7 7 7 7 7 7 7 7 7 "
};
