/* XPM */
static char *_9fd0010293741d7d52e897feeb40c5aQsNjBfSJU0rRZrFk[] = {
/* columns rows colors chars-per-pixel */
"64 64 113 2 ",
"   c #1C060C",
".  c #150C0D",
"X  c #1C0B0E",
"o  c #1F1110",
"O  c #210A0E",
"+  c #2A0C0E",
"@  c #23110F",
"#  c #3A110F",
"$  c #291613",
"%  c #361412",
"&  c #3A1410",
"*  c #341B16",
"=  c #3B1B17",
"-  c #41120F",
";  c #411310",
":  c #441C15",
">  c #441C18",
",  c #541710",
"<  c #5B1A13",
"1  c #661C12",
"2  c #6D1E13",
"3  c #4D2116",
"4  c #47241B",
"5  c #4C211B",
"6  c #54251D",
"7  c #5B2718",
"8  c #562E1D",
"9  c #5E2A19",
"0  c #53321E",
"q  c #6D2014",
"w  c #652319",
"e  c #602B19",
"r  c #712115",
"t  c #792817",
"y  c #7D2C1C",
"u  c #76391E",
"i  c #5B3621",
"p  c #573B24",
"a  c #5A3E26",
"s  c #623620",
"d  c #753928",
"f  c #7F3C2A",
"g  c #654B2C",
"h  c #6B4A2C",
"j  c #755732",
"k  c #775832",
"l  c #812E1E",
"z  c #85331C",
"x  c #89361C",
"c  c #86391F",
"v  c #8C391E",
"b  c #903C1F",
"n  c #803C2A",
"m  c #8F3C28",
"M  c #923E28",
"N  c #864E29",
"B  c #944224",
"V  c #9A4622",
"C  c #9E4924",
"Z  c #9B472F",
"A  c #9E4F29",
"S  c #8B552D",
"D  c #984730",
"F  c #9D4A32",
"G  c #A44E25",
"H  c #A44F2C",
"J  c #A65026",
"K  c #A85026",
"L  c #A3552D",
"P  c #AB5629",
"I  c #AC5A2C",
"U  c #A34F35",
"Y  c #A55036",
"T  c #A95437",
"R  c #AC5837",
"E  c #B36331",
"W  c #B66934",
"Q  c #B96B35",
"!  c #B26238",
"~  c #BB6F38",
"^  c #BE7037",
"/  c #BE713A",
"(  c #C17037",
")  c #C3753B",
"_  c #C5793D",
"`  c #C97C3E",
"'  c #A58345",
"]  c #AC8D4B",
"[  c #CA8342",
"{  c #CE8F48",
"}  c #D18E48",
"|  c #CE9049",
" . c #D3934A",
".. c #D6924A",
"X. c #D7994E",
"o. c #DFA755",
"O. c #E0A956",
"+. c #E7AF59",
"@. c #E5B25B",
"#. c #E6B65D",
"$. c #EBBD61",
"%. c #EBBD62",
"&. c #EDC063",
"*. c #F1C263",
"=. c #F1C666",
"-. c #F2C867",
";. c #F3CA68",
":. c #F4CB69",
">. c #F4CC69",
",. c #F9CF6A",
"<. c #F9D06B",
"1. c #FBD36C",
"2. c #FFD66D",
/* pixels */
"_ _ _ _ _ _ _ _ _ _ _ _ / U U U U U U U U U U U U U U U U U U U U U U U U Y 6 . . . g ,.;.;.&._ _ _ _ _ _ _ _ _ _ _ _ _ _ _ _ _ ",
"_ _ _ _ _ _ _ _ _ _ _ _ / U U U U U U U U U U U U U U U U U U U U U U U U Y 6 . . . g ,.;.;.&._ _ _ _ _ _ _ _ _ _ _ _ _ _ _ _ _ ",
"_ _ _ _ _ _ _ _ _ _ _ _ / U U U U U U U U U U U U U U U U U U U U U U U U Y 6 . . . g ,.;.;.&._ _ _ _ _ _ _ _ _ _ _ _ _ _ _ _ _ ",
"_ _ _ _ _ _ _ _ _ _ _ _ / U U U U U U U U U U U U U U U U U U U U U U U U T 6 . . . g <.;.>.&._ ) ) ) _ _ _ _ _ _ _ _ _ _ _ _ _ ",
"c c c c c c c c c c c c c y y y y y y y y y y y y y y y y y y y y y y y y l : . . . p ..} }  .@.#.#.#.Q I I I V c c c c c c c c ",
"2 2 2 2 2 2 2 2 2 2 2 2 2 2 2 2 2 2 2 2 2 2 2 q 2 2 2 2 2 2 2 2 2 2 2 2 q r & . . . 0 _ ) ) [ -.:.:.>.W G G G c 2 2 2 2 2 2 2 2 ",
"r r r r r r r r r r r r r r r r r r r r r r r r r r r r r r r r r r r r r r & . . . 0 _ _ _ [ =.;.;.;.Q G G J x 2 r r r r r r r ",
"r r r r r r r r r r r r r r r r r r r r r r r r r r r r r r r r r r r r r r & . . . 0 _ _ _ [ :.>.>.>.Q G J K x 2 r r r r r r r ",
"r r r r r r r r r r r r r r r r r r r r r r r r r r r r r r r r r r 2 2 2 2 & . . . 0 _ _ _ _ { | | | A v v v y r r r r r r r r ",
"r r r r r r r r r r r r r r r r r r r r r r r r r r r r r r r r r r 1 1 1 1 & . . . 0 _ _ _ ( G G G G t 2 2 2 r r r r r r r r r ",
"r r r r r r r r r r r r r r r r r r r r r r r r r r r r r r r r r r 1 1 1 1 & . . . 0 _ _ _ ) J G G G t r r r r r r r r r r r r ",
"r r r r r r r r r r r r r r r r r r r r r r r r r r r r r r r r r r 1 1 1 1 & . . . 0 ` _ _ ) J G G G t r r r r r r r r r r r r ",
"r r r r r r r r r r r r r r r r r r r r r r r r r r r r r r 2 2 2 2 1 1 1 1 & . . . 8 ) / / Q V V V V t r r r r r r r r r r r r ",
"r r r r r r r r r r r r r r r r r r r r r r r r r r r r r q 1 1 1 1 1 1 1 1 & . . . 4 Y U U F r r r r r r r r r r r r r r r r r ",
"r r r r r r r r r r r r r r r r r r r r r r r r r r r r r q 1 1 1 1 1 1 1 1 & . . . 4 Y U U F r r r r r r r r r r r r r r r r r ",
"r r r r r r r r r r r r r r r r r r r r r r r r r r r r r q 1 1 1 1 1 1 1 1 & . o . 4 Y Y Y F r r r r r r r r r r r r r r r r r ",
"q q q q q q q q q q q q q q q q q q q q q q q q q q q q q q 1 1 1 1 1 1 1 1 % . . . 4 U F F D r q q q q q q q q q q q q q q q q ",
"@ @ @ @ @ @ @ @ @ @ @ @ @ @ @ @ @ @ @ @ @ @ @ @ @ @ @ @ @ @ @ @ @ @ @ @ @ @ X . . . @ $ $ $ $ @ @ @ @ @ @ @ @ @ @ @ @ @ @ @ @ @ ",
". . . . . . . . . . . . . . . . . . . . . . . . . . . . . . . . . . . . . . . . . o . . . . . . . . . . . . . . . . . . . . . . ",
". o . o . . . . . o . o . . . . . . . . . . . . o . . . . . . . . . . . . . . . o o o o . . . . . o . o . . . . . . . o o . . . ",
". . . . . . . . . . . . . . . . . . . . . . . . . . . . . . . . . . . . . . . . . . . . . . . . . . . . . . . . . . . . . . . . ",
"d d d d d d d d d d d d d d d d d d d d d =       a ] ] ] ' S S S S S S S S S S S S S S S S S S S S S S S S S S S S S N u u u u ",
"Y Y Y Y Y Y Y Y Y Y Y Y Y Y Y Y Y Y Y Y T 5   O   k 2.,.<.*.` ` ` ` ` ` ` ` ` ` ` ` ` ` ` ` ` ` ` ` ` ` ` ` ` ` ` ` ` ( K K K K ",
"U U U U U U U U U U U U U U U U U U Y Y Y 5   O   j <.;.;.$._ _ _ _ _ _ _ _ _ _ _ _ _ _ _ _ _ _ _ _ _ _ _ _ _ _ _ _ _ ~ G G G G ",
"Y Y Y Y Y Y Y Y Y Y Y Y Y Y Y Y Y Y Y Y T 5   O   j 1.>.>.$.) ) ) ) _ _ _ _ _ _ _ _ _ _ _ _ _ _ _ _ _ _ _ _ _ _ _ _ ` ^ G J J J ",
"m m m m m m m m m m m m m m m m m m m m M :   O   h +.O.O.o.X.X.X.X./ W W W I L L L L L L L L L L L L L L L L L L L L A v b b b ",
"2 2 2 2 2 2 2 2 2 2 2 2 2 2 2 2 2 2 2 2 r #   O   s _ ) ) [ ;.>.>.;.E G G G z 2 2 2 2 2 2 2 2 2 2 2 2 2 2 2 2 2 2 2 2 2 2 2 2 2 ",
"r r r r r r r r r r r r r r r r r r r r r &   O   s ` _ _ [ -.;.;.-.E G G J z 2 r r r r r r r r r r r r r r r r r r r r r r r r ",
"r r r r r r r r r r r r r r r r r r r r r &   O   s ` _ _ [ ;.;.;.-.E G G J z 2 r r r r r r r r r r r r r r r r r r r r r r r r ",
"r r r r r r r r r r r r r r r r r q q q r &   O   s ` _ _ [ #.#.#.#.I V V C z 2 r r r r r r r r r r r r r r r r r r r r r r r r ",
"r r r r r r r r r r r r r r r r r 1 1 1 1 #   O   s ` _ _ ( J J J J t r r r r r r r r r r r r r r r r r r r r r r r r r r r r r ",
"r r r r r r r r r r r r r r r r r 1 1 1 1 #   O   s ` _ _ / G G G G t r r r r r r r r r r r r r r r r r r r r r r r r r r r r r ",
"r r r r r r r r r r r r r r r r r 1 1 1 1 #   O   s ` _ _ / G G G G t r r r r r r r r r r r r r r r r r r r r r r r r r r r r r ",
"r r r r r r r r r r r r r r r r r 1 1 1 1 #   O   s ` _ _ / G G G G t r r r r r r r r r r r r r r r r r r r r r r r r r r r r r ",
"r r r r r r r r r r r r q 1 1 1 1 1 1 1 1 #   O   6 R T T U t t t t r r r r r r r r r r r r r r r r r r r r r r r r r r r r r r ",
"r r r r r r r r r r r r 2 1 1 1 1 1 1 1 1 #   O   6 Y U U Z r r r r r r r r r r r r r r r r r r r r r r r r r r r r r r r r r r ",
"r r r r r r r r r r r r 2 1 1 1 1 1 1 1 1 #   O   6 Y U U Z r r r r r r r r r r r r r r r r r r r r r r r r r r r r r r r r r r ",
"r r r r r r r r r r r r r 1 1 1 1 1 1 1 1 #   O   6 T Y Y U r r r r r r r r r r r r r r r r r r r r r r r r r r r r r r r r r r ",
"; ; ; ; ; ; ; ; ; ; ; ; ; # # # # # # # # + O O   % 6 6 6 6 ; ; ; ; ; ; ; ; ; ; ; ; ; ; ; ; ; ; ; ; ; ; ; ; ; ; ; ; ; ; ; ; ; ; ",
"                                          O O O O                                                                               ",
"O O O O O O O O O O O O O O O O O O O O O O O O O O O O O O O O O O O O O O O O O O O O O O O O O O O O O O O O O O O O O O O O ",
"                                                                                                                O O O           ",
"g g g g i 8 8 8 8 8 8 8 8 8 8 8 8 8 8 8 8 8 8 8 8 8 8 8 8 8 8 8 8 8 3 3 3 3 3 3 3 3 3 3 3 3 3 3 3 3 3 3 3 3 3 %   O   * g g g g ",
",.,.,.<..._ ` ` ` ` ` ` ` ` ` ` ` ` ` ` ` ` ` ` ` ` ` ` ` ` ` ` ` _ P K K K K K K K K K K K K K K K K K K K P e   O   a 1.,.,.,.",
";.;.;.;.} ) _ _ _ _ _ _ _ _ _ _ _ _ _ _ _ _ _ _ _ _ _ _ _ _ _ _ _ _ P G G G G G G G G G G G G G G G G G G G K 9   O   a >.;.;.;.",
";.;.;.>.} ) _ _ _ _ _ _ _ _ _ _ _ _ _ _ _ _ _ _ _ _ _ _ _ _ _ _ _ _ P G G G G G G G G G G G G G G G G G G G K 9   O   a >.;.;.;.",
"&.&.&.&. .[ [ [ _ ( ) ) ( ~ ~ ~ ~ ~ ~ ~ ^ ~ ~ ~ ~ ~ ~ ~ ~ ~ ~ ~ ~ ~ G C C C C C G C C C C C C C C C C C G G G 7   O   p $.$.$.$.",
"_ _ _ _ @.-.=.;.{ G J J V r r r r r r r r r r r r r r r r r r r r r r r r r r r r r r r r r r r r r r r r r r ;   O   > T T T T ",
"_ _ _ ) #.:.;.>.| G G G V r r r r r r r r r r r r r r r r r r r r r r r r r r r r r r r r r r r r r r r r r r ;   O   > Y U U U ",
"_ _ _ ) #.:.;.>.| G G G V r r r r r r r r r r r r r r r r r r r r r r r r r r r r r r r r r r r r r r r r r r ;   O   > Y Y U U ",
"_ _ _ ) #.>.;.>.| G G G V q r r r r r r r r r r r r r r r r r r r r r r r r r r r r r r r r r r r r r r r r r ;   O   > Y U Y U ",
"_ _ _ _ Q W Q Q A t t t t q r r r r r r r r r r r r r r r r r r r r r r r r r r r r r r r r r r r r r 1 1 1 1 ;   O   > Y Y Y U ",
"_ _ _ _ I G G G v 2 r r r r r r r r r r r r r r r r r r r r r r r r r r r r r r r r r r r r r r r r r 1 1 1 1 -   O   > Y U U U ",
"_ _ _ _ I G G J v 2 r r r r r r r r r r r r r r r r r r r r r r r r r r r r r r r r r r r r r r r r r 1 1 1 1 -   O   > Y U U U ",
"_ _ _ _ I G J K v 2 r r r r r r r r r r r r r r r r r r r r r r r r r r r r r r r r r r r r r r r r r 1 1 1 1 -   O   > Y U Y Y ",
"! ! ! ! B x x x y r r r r r r r r r r r r r r r r r r r r r r r r r r r r r r r r r r r r r r 1 2 1 1 1 1 1 1 -   O   : L H H L ",
"U U U U y 2 2 2 r r r r r r r r r r r r r r r r r r r r r r r r r r r r r r r r r r r r r r q 1 1 1 1 1 1 1 1 -   O   : J G G J ",
"U U U U y 2 r r r r r r r r r r r r r r r r r r r r r r r r r r r r r r r r r r r r r r r r q 1 1 1 1 1 1 1 1 -   O   : J G J J ",
"Y Y Y Y l r r r r r r r r r r r r r r r r r r r r r r r r r r r r r r r r r r r r r r r r r r 1 1 1 1 1 1 1 1 -   O   : K K K K ",
"f f f n w < < < < < < < < < < < < < < < < < < < < < < < < < < < < < < < < < < < < < < < < < < , , , , , , , , #   O   & c c c c ",
"            O O             O O             O O             O O             O O             O O         O   O O O O O O         ",
"O O O O O O O O O O O O O O O O O O O O O O O O O O O O O O O O O O O O O O O O O O O O O O O O O O O O O O O O O O O O O O O O ",
"O O O O O O O O O O O O O O O O O O O O O O O O O O O O O O O O O O O O O O O O O O O O O O O O O O O O O O O O O O O O O O O O ",
"O O O O O O O O O O O O O O O O O O O O O O O O O O O O O O O O O O O O O O O O O O O O O O O O O O O O O O O O O O O O O O O O "
};
