/* XPM */
static char *_84710fc73b24859be18f8387ba24fa7ZcwapvAZXYgfBYfI[] = {
/* columns rows colors chars-per-pixel */
"64 64 254 2 ",
"   c #AB5F32",
".  c #AA5E31",
"X  c #964F24",
"o  c #934C22",
"O  c #944D23",
"+  c #924B22",
"@  c #AE6734",
"#  c #BD763E",
"$  c #BC753E",
"%  c #B16A36",
"&  c #954E24",
"*  c #924B21",
"=  c #BB743D",
"-  c #B06936",
";  c #9A5127",
":  c #995126",
">  c #A65B2F",
",  c #A75C2F",
"<  c #9B5227",
"1  c #B8713B",
"2  c #CF8B51",
"3  c #D29055",
"4  c #D28F55",
"5  c #C07A42",
"6  c #B9723C",
"7  c #A45A2D",
"8  c #A55B2E",
"9  c #954E23",
"0  c #D69459",
"q  c #DC9B5F",
"w  c #DB9A5E",
"e  c #DB9B5E",
"r  c #C27D44",
"t  c #A65B2E",
"y  c #B7703A",
"u  c #D69458",
"i  c #C27C44",
"p  c #A45A2E",
"a  c #AC6032",
"s  c #AC5F32",
"d  c #BA733C",
"f  c #D7955A",
"g  c #DD9C5F",
"h  c #DC9C5F",
"j  c #BA723C",
"k  c #A65F2F",
"l  c #A2592C",
"z  c #A0562A",
"x  c #A0562B",
"c  c #A1582B",
"v  c #A76030",
"b  c #BE7740",
"n  c #CA854C",
"m  c #CA864C",
"M  c #C57F4A",
"N  c #C47E49",
"B  c #C9844C",
"V  c #CA864D",
"C  c #C68148",
"Z  c #BE773F",
"A  c #9E572A",
"S  c #9C5528",
"D  c #BD763F",
"F  c #C17B43",
"G  c #B16637",
"H  c #A85C2F",
"J  c #A95C30",
"K  c #D18E55",
"L  c #D39056",
"P  c #C07A43",
"I  c #DA995D",
"U  c #B26839",
"Y  c #D08D54",
"T  c #9E5729",
"R  c #9B5428",
"E  c #DC9B5E",
"W  c #A55E2E",
"Q  c #A35C2D",
"!  c #C8834D",
"~  c #CE8B52",
"^  c #CB8951",
"/  c #CC8A51",
"(  c #C7844C",
")  c #BB743E",
"_  c #9E5529",
"`  c #924C22",
"'  c #BC763E",
"]  c #9F552A",
"[  c #944E23",
"{  c #A0592B",
"}  c #D08C52",
"|  c #D8965B",
" . c #CC884F",
".. c #BB733D",
"X. c #9A5227",
"o. c #964E24",
"O. c #954D23",
"+. c #A86030",
"@. c #CE8B51",
"#. c #985026",
"$. c #A96231",
"%. c #D39055",
"&. c #DD9C60",
"*. c #DE9D60",
"=. c #CF8C52",
"-. c #B36839",
";. c #AB5E31",
":. c #D08D53",
">. c #D18E53",
",. c #C07A45",
"<. c #BA7240",
"1. c #BB7240",
"2. c #BB7340",
"3. c #B06A3A",
"4. c #AB6636",
"5. c #B26C39",
"6. c #C58048",
"7. c #A25A2D",
"8. c #9B5328",
"9. c #A0572B",
"0. c #B76E3D",
"q. c #A85B2F",
"w. c #A95D30",
"e. c #AA5D31",
"r. c #995026",
"t. c #914A20",
"y. c #914A21",
"u. c #904920",
"i. c #A25B2C",
"p. c #995226",
"a. c #B86F3D",
"s. c #9A5327",
"d. c #914B21",
"f. c #984F25",
"g. c #A86130",
"h. c #A45D2D",
"j. c #A35B2D",
"k. c #A1572B",
"l. c #A1572C",
"z. c #AF6835",
"x. c #B46D38",
"c. c #B36C38",
"v. c #B86F3E",
"b. c #D69559",
"n. c #B46B3A",
"m. c #A65A2E",
"M. c #B46D39",
"N. c #9F582A",
"B. c #9E552A",
"V. c #934D22",
"C. c #934D23",
"Z. c #A45D2E",
"A. c #B56E39",
"S. c #B66F3A",
"D. c #974F25",
"F. c #AB6432",
"G. c #C07942",
"H. c #D59358",
"J. c #CD894F",
"K. c #C9854C",
"L. c #D79559",
"P. c #AE6735",
"I. c #DD9D60",
"U. c #BA723B",
"Y. c #B9723B",
"T. c #CC894F",
"R. c #AC6533",
"E. c #C37D45",
"W. c #CC874F",
"Q. c #BE7643",
"!. c #BD7543",
"~. c #C37D48",
"^. c #C58049",
"/. c #C47F46",
"(. c #C8844B",
"). c #D39157",
"_. c #A75B2F",
"`. c #BA7140",
"'. c #C17A46",
"]. c #A75A2E",
"[. c #C8834A",
"{. c #D49257",
"}. c #C47F47",
"|. c #D49258",
" X c #BB7341",
".X c #C3804A",
"XX c #BD7841",
"oX c #C27D45",
"OX c #C8834B",
"+X c #CB864F",
"@X c #CA864F",
"#X c #C5804A",
"$X c #A3582C",
"%X c #A2572B",
"&X c #B26A39",
"*X c #D18F54",
"=X c #CE8A50",
"-X c #BD7743",
";X c #A1562B",
":X c #924A21",
">X c #C7824C",
",X c #9C5328",
"<X c #BC753D",
"1X c #B4703E",
"2X c #9D5428",
"3X c #A15A2C",
"4X c #B5703E",
"5X c #A15A2B",
"6X c #914920",
"7X c #985126",
"8X c #975025",
"9X c #B26B37",
"0X c #A85D30",
"qX c #A85C30",
"wX c #9E562A",
"eX c #975125",
"rX c #D18E54",
"tX c #D8965A",
"yX c #D9985C",
"uX c #B5713E",
"iX c #985025",
"pX c #BA733D",
"aX c #BC763F",
"sX c #AB6433",
"dX c #C9844B",
"fX c #C37E45",
"gX c #B16B38",
"hX c #C47E46",
"jX c #D59257",
"kX c #C78249",
"lX c #DE9E61",
"zX c #CB874D",
"xX c #C07946",
"cX c #C6814A",
"vX c #C8834C",
"bX c #B77240",
"nX c #B8733E",
"mX c #CF8C51",
"MX c #8F481F",
"NX c #C17B46",
"BX c #D59357",
"VX c #CB874F",
"CX c #A86131",
"ZX c #CF8B53",
"AX c #CD8A52",
"SX c #CE8A52",
"DX c #D39156",
"FX c #C37E48",
"GX c #A0582B",
"HX c #9D5629",
"JX c #B46A3A",
"KX c #BF7941",
"LX c #B56B3B",
"PX c white",
/* pixels */
"                                . X o O + @ # $ $ $ $ $ $ $ $ $ $ $ $ $ $ $ $ $ $ $ $ $ $ $ $ $ $ $ $ $ $ $ $ $ $ $ $ % o O O O ",
"                                . X o O + @ # $ $ $ $ $ $ $ $ $ $ $ $ $ $ $ $ $ $ $ $ $ $ $ $ $ $ $ $ $ $ $ $ $ $ $ $ % o O O O ",
"                                . X o O + @ # $ $ $ $ $ $ $ $ $ $ $ $ $ $ $ $ $ $ $ $ $ $ $ $ $ $ $ $ $ $ $ $ $ $ $ $ % o O O O ",
"          .           .         . & o o * @ # $ $ $ $ $ $ $ $ $ $ = = = = = = = = = = = = = = = = = = = $ $ $ $ $ $ $ - + o o o ",
"; ; ; : >               , ; ; ; < @ % % - 1 $ $ $ $ $ $ $ $ $ $ $ $ 2 3 4 4 4 4 4 4 4 4 4 4 4 4 4 4 3 5 = $ $ $ $ $ $ 6 - % % % ",
"o o o o 7               8 o o o 9 1 # $ $ $ = $ $ $ $ $ $ $ $ $ $ $ 0 q w w w w w w w w w w w w w w e r = $ $ $ $ $ = $ $ $ $ $ ",
"O O O o 7               t o O o & y $ $ $ $ $ $ $ $ $ $ $ $ $ $ $ $ u w w w w w w w w w w w w w w w w i = $ $ $ $ $ $ $ $ $ $ $ ",
"+ + + * p a           s > * + + O y $ $ $ $ $ $ $ $ $ $ $ = d d d = f g h h h h h h h h h h h h h h h i j d d d d d d = $ $ $ $ ",
"k k k k l z x x x x x z c k k k v 6 $ $ $ $ $ $ $ $ $ $ = b n m m m M N N N N N N N N N N N N N N N N B m m m m m m V C = $ $ $ ",
"# # # Z A * o o o o o * S D # # # $ = $ $ $ $ $ $ $ $ $ = F w q q w G H J J J J J J J J J J J J J J J K g q q q q q h L = $ $ $ ",
"$ $ $ $ A o O O O O O o S $ $ $ $ $ $ $ $ $ $ $ $ $ $ $ = P I w w I U .                             . Y e w w w w w w 4 = $ $ $ ",
"$ $ $ $ T * o o o o o + R $ $ $ $ $ $ $ $ $ $ $ $ $ $ $ = P I w w I U .                             . K h e e E q q g L = $ $ $ ",
"$ $ $ $ W R S S S S S R Q $ $ $ $ $ $ $ $ $ $ $ $ $ $ $ = P I w w I U .                             . ! K Y Y ~ ^ ^ / ( = $ $ $ ",
"$ $ $ ) $ $ $ $ $ $ $ $ $ $ $ $ $ $ $ $ $ $ $ $ $ $ $ $ = P I w w I U .                               . . .   _ ` o + A $ $ $ $ ",
"$ $ $ $ $ $ $ $ $ $ $ $ $ $ $ $ $ $ $ $ $ $ $ $ $ $ $ $ = P I w w I U .                                       _ o O o A $ $ $ $ ",
"$ $ $ $ = = = = = = = = = = = = = = = = = = = = = = $ $ = P I w w I U .                                       _ o o o A $ $ $ $ ",
"$ $ $ = ' D D D D D D D D D D D D D D D D D D D D $ = $ = P I w w I U .                               . . . . ] [ & O { $ $ $ $ ",
"$ $ $ = } | f f f f f f f f f f f f f f f f f f |  ...$ = P I w w I U .                               X.o.X O.+.1 y y 1 $ $ $ $ ",
"$ $ $ = 3 e w w w w w w w w w w w w w w w w w w q @.d $ = P I w w I U .                               #.o o * $.D $ $ $ = $ $ $ ",
"$ $ $ = 4 w w w w w w w w w w w w w w w w w w w q @.d $ = P I w w I U .                               #.o O + $.# $ $ $ $ $ $ $ ",
"......d %.&.q q q q q q q q q q q q q q q q h h *.=.d $ = F w e e w -.;.              .               #.o O + $.# $ $ $ $ $ $ $ ",
":.:.:.>.,.<.1.1.1.1.1.1.1.1.1.1.1.1.1.1.2.3.4.4.4.5.$ $ = D C C C 6.7.< 8.8.8.8.8.< 9.                #.o O + $.# $ $ $ $ $ $ $ ",
"e e e h 0.q.w.w.w.w.w.w.w.w.w.w.w.w.w.w.e.r.t.y.u.i.# $ $ = ......d p.` o o o o o + <                 #.o O + $.# $ $ $ $ $ $ $ ",
"w w w e a.w.                              8.o O + Q # $ $ $ $ $ $ = s.o O O O O O o 8.                #.o O + $.# $ $ $ $ $ $ $ ",
"w w w e a.w.                              8.o O + Q # $ $ $ $ $ $ = p.* + + + + + d.< a               f.* + y.g.# $ $ $ $ $ $ $ ",
"w w w e a.w.                              8.o O + Q # $ $ $ $ $ $ = v Q Q Q Q Q Q h.j.k.l.l.l.l.l.l.l.j.h.Q Q - $ $ $ $ $ $ $ $ ",
"w w w e a.w.                              8.o O + Q # $ $ $ $ $ $ $ # # # # # # # Z z.* o o o o o o o x.Z # # $ = $ $ $ $ $ $ $ ",
"w w w e a.w.                              8.o O + Q # $ $ $ $ $ $ $ $ $ $ $ $ $ $ # @ + O O O O O O o c.$ $ $ $ $ $ $ $ $ $ $ $ ",
"w w w q v.e.      .                       8.o O + Q # $ $ $ $ $ $ $ $ $ $ $ $ $ $ # @ * o o o o o o o c.$ $ $ $ $ $ $ $ $ $ $ $ ",
"u u u b.n.m., , w.                        8.o O + Q # $ $ $ $ $ $ $ $ $ $ $ $ $ $ $ - p.s.s.s.s.s.s.s.M.$ $ $ $ $ $ $ $ $ $ $ $ ",
"$ $ $ # N.o O o B.                        8.o O + Q # $ $ $ $ $ $ $ $ $ $ $ $ $ $ $ = = = = = = = = = = $ $ $ $ $ $ $ $ $ $ $ $ ",
"$ $ $ $ A o O o _                         8.o O + Q # $ $ $ $ $ $ $ $ $ $ $ $ $ $ $ $ $ $ $ $ $ $ $ $ $ $ $ $ $ $ $ $ $ $ $ $ $ ",
"$ $ $ $ A o O o _                         8.o O + Q # $ $ $ $ $ $ $ $ $ $ $ $ $ $ $ $ $ $ $ $ $ $ $ $ $ $ $ $ $ $ $ $ $ $ $ $ $ ",
"$ $ $ $ N.o O V.B.  . . . . . . . . . .   8.C.O o Z.# $ = $ $ $ $ $ $ $ $ $ $ $ $ $ $ = $ $ $ $ $ $ $ $ $ $ = $ $ $ $ $ $ $ $ $ ",
"$ $ $ $ y A.A.S.v o.D.D.D.D.D.D.D.D.D.D.X F.S.A.A.1 $ $ = G.H.u u u u u u u u u u b.J.= $ $ $ $ $ $ $ $ $ $ ..K.L.u u u u u u u ",
"$ $ $ = $ $ $ D $.* o o o o o o o o o o + P.D $ $ $ = $ = P I w w w w w w w w w w q :...$ $ $ $ $ $ $ $ $ $ d  .q w w w w w w w ",
"$ $ $ $ $ $ $ # $.+ O O O O O O O O O O + @ # $ $ $ $ $ = P I w w w w w w w w w w e :...$ $ $ $ $ $ $ $ $ $ d  .q w w w w w w w ",
"d d d d = $ $ D g.y.+ + + + + + + + + + y.@ # $ $ = d d d 5 E q q q q q q q q q q I.>.U.d d ..= $ $ $ = d d Y.T.I.q q q q q q q ",
"@.@.@.@.F = $ $ x.F.R.R.R.R.R.R.R.R.R.R.F.S.$ $ = E.2 @.@.W.Q.Q.Q.Q.Q.Q.Q.Q.Q.Q.Q.!.~.2 @.@. .$ = $ = V @.@.2 ^.!.Q.Q.Q.Q.Q.Q.Q.",
"q q q q /.= $ = $ # # # # # # # # # # # # $ = $ d (.&.q q ).. w.w.w.w.w.w.w.w.w.w._.`.&.q q | D = $ = H.q q I.'.].w.w.w.w.w.w.w.",
"w w w w /.= $ $ $ $ $ $ $ $ $ $ $ $ $ $ $ $ $ $ d [.q w w L                       w.1.q w w f D = $ = {.w w h '.J               ",
"g g g &.}.= $ $ $ $ $ $ $ $ $ $ $ $ $ $ $ = ....Y.[.I.q h |.              .       e. X&.e q | D = $ = {.w w h '.w.              ",
".X.X.X.XXX= $ $ $ $ $ $ $ $ $ $ $ $ $ $ = oXC C C OX+X@X+X#X                t $X$X%X&X*X:.:.=X' = $ = {.w w g -X;X$X$X$X$X$X$X$X",
":X:X:Xt.- $ $ $ $ $ $ $ $ $ $ $ $ $ $ $ ..>.h e I.>X_.w.w.w..               ,X+ o * { <X....= = $ $ = {.w w &.1Xu.o o o o o o o ",
"O O O o % $ $ $ $ $ $ $ $ $ $ $ $ $ $ $ ..:.e w q >Xw.                      2Xo O + 3X# $ $ $ $ $ $ = {.w w &.4Xt.O O O O O O O ",
"o o o o % $ $ $ $ $ $ $ $ $ $ $ $ $ $ $ ..:.e w q >Xw.                      2X` o + 5X# $ $ $ $ $ $ = {.w w I.4X6Xo o o o o o o ",
"7X7X7X8X9X$ $ $ $ $ $ $ $ $ $ $ $ $ $ $ ..:.e w q >Xw.            . 0XqXqX0XwXeX7X8XZ.$ $ $ $ $ $ $ = rXtXf yXuXX 7X7X7X7X7X7X7X",
"d d d d = $ $ $ $ $ $ $ $ $ $ $ $ $ $ $ ..:.e w q >Xw.            . iXO O o F.= d d pX$ $ $ $ $ $ $ = aXD D D ) d d d d d d d d ",
"$ $ $ $ $ $ $ $ $ $ $ $ $ $ $ $ $ $ $ $ ..:.e w q >Xw.            . D.o o + R.# $ $ $ $ $ $ $ $ $ $ $ = = = = $ $ $ $ $ $ $ $ $ ",
"$ $ $ $ $ $ $ $ $ $ $ $ $ $ $ $ $ $ $ $ ..:.e w q >Xw.            . D.o O + R.# $ $ $ $ $ $ $ $ $ $ $ $ $ $ $ $ $ $ $ $ $ $ $ $ ",
"= = = = = = = = = $ $ $ $ $ $ $ $ $ $ $ ..:.q w h >Xw.            . D.o o * sX# $ $ = = = = = = = = = = = = = = $ $ $ $ $ $ $ $ ",
"{.{.{.{.{.{.{.H.dX..$ $ $ $ $ $ $ $ $ $ = 5 oXi fXgXD.#.#.#.#.#.#.: z.c.c.c.1 $ $ = hXjX{.{.{.{.{.{.{.{.{.{.H.kX..$ $ $ $ $ $ $ ",
"w w w w w w w h T.d $ $ $ $ $ $ $ $ $ $ $ = = = $ F.* o o o o o o O S.# $ $ $ = $ ..C q w w w w w w w w w w h V d $ $ $ $ $ $ $ ",
"w w w w w w w q  .d $ $ $ $ $ $ $ $ $ $ $ $ $ $ # R.+ O O O O O O O A.$ $ $ $ $ $ ..C e w w w w w w w w w w q m d $ $ $ $ $ $ $ ",
"h h h h h h h I.T.Y.d d ..$ $ $ $ $ $ $ $ $ $ $ # F.y.+ + + + + + o A.$ $ $ = d d Y.C I.h h h h h h h &.&.&.lXzXd $ $ = d d d d ",
"'.'.'.'.'.'.'.xXcXT. .T.dX= $ $ $ $ $ $ $ $ $ $ $ x.g.$.$.$.$.$.$.$.Y.$ $ = 6.J. .T.vX'.'.'.'.'.'.'.'.bX1X4X1XnX<X$ = 5 T. . . .",
"J J J J J J J ].xXI.q h H.= $ $ $ $ $ $ $ $ $ $ = $ # # # # # # # # $ = $ d mX&.q I.+X_.J J J J J J J o.6Xt.MXg.D $ = /.h q q q ",
"              J '.h w w {.= $ $ $ $ $ $ $ $ $ $ $ $ $ $ $ $ $ $ $ $ $ $ $ d @.q w q @Xw.              #.o O + $.# $ = /.w w w w ",
"              J NXI.q h BX..= = = = $ $ $ $ $ $ $ $ $ $ $ $ $ $ $ $ $ $ $ d 2 h w &.VXe.              iX+ o y.CX# $ = /.w w w w ",
"              w.2.ZXAXSXVXhX/./.hX' = $ $ $ $ $ $ $ $ $ $ $ $ $ $ $ $ $ $ = K.L 4 DXFX$X7 7 7 7 7 7 7 GXA A HX@ # $ = /.w w w w ",
"                . e.e.J JXw w w I KX= $ $ $ $ $ $ $ $ $ $ $ $ $ $ $ $ $ $ $ = = = $ @ * o o o o o o o c.# $ $ $ = $ = /.w w w w ",
"                      e.LXw w w yXKX= $ $ $ $ $ $ $ $ $ $ $ $ $ $ $ $ $ $ $ $ $ $ # @ + O O O O O O o c.$ $ $ $ $ $ = /.w w w w ",
"                      e.LXw w w yXKX= $ $ $ $ $ $ $ $ $ $ $ $ $ $ $ $ $ $ $ $ $ $ # @ + O O O O O O o c.$ $ $ $ $ $ = /.w w w w ",
"                      e.LXw w w yXKX= $ $ $ $ $ $ $ $ $ $ $ $ $ $ $ $ $ $ $ $ $ $ # @ + O O O O O O o c.$ $ $ $ $ $ = /.w w w w "
};
