/* XPM */
static char *d3adc0f3c2834aab8f0d43c6e5a847d5p2BNzUu1MkBTCjG3[] = {
/* columns rows colors chars-per-pixel */
"64 64 137 2 ",
"   c #DBDCDA",
".  c #E0E2DF",
"X  c #9B9696",
"o  c #17060A",
"O  c #1D0C10",
"+  c #1B0A0E",
"@  c #322326",
"#  c #D3D3D1",
"$  c #E1E2E0",
"%  c #9C9797",
"&  c #D4D4D2",
"*  c gray72",
"=  c gray74",
"-  c #847E80",
";  c #18070B",
":  c #2E1F22",
">  c #B2B1B1",
",  c #AAA9AA",
"<  c #AEAEAF",
"1  c #7B7577",
"2  c #19070B",
"3  c #1C0A0E",
"4  c #2C1D21",
"5  c #A5A3A4",
"6  c #ACABAC",
"7  c #B0AFB0",
"8  c #7C7577",
"9  c #2D1D21",
"0  c #A6A4A5",
"q  c #A5A4A5",
"w  c #A9A9AA",
"e  c #787173",
"r  c #1C0C10",
"t  c #1B0B0F",
"y  c #2C1D20",
"u  c #A09E9F",
"i  c #282122",
"p  c #272222",
"a  c #282222",
"s  c #221C1C",
"d  c #170F10",
"f  c #171010",
"g  c #191212",
"h  c #272121",
"j  c #1B0B0E",
"k  c #160F0F",
"l  c #15100F",
"z  c #150F0F",
"x  c #161010",
"c  c #161111",
"v  c #171111",
"b  c #1A090D",
"n  c #120A0B",
"m  c #110B0B",
"M  c #9F9A9A",
"N  c #473A3C",
"B  c #19070C",
"V  c #4F4345",
"C  c #9F9B9B",
"Z  c #999796",
"A  c #999896",
"S  c #E5E7E5",
"D  c #5E5355",
"F  c #170509",
"G  c #160409",
"H  c #6B6162",
"J  c #E7E9E6",
"K  c #E0E1DF",
"L  c #5C5153",
"P  c #17050A",
"I  c #160509",
"U  c #685F60",
"Y  c #E1E3E0",
"T  c #DCDDDB",
"R  c #E1E3E1",
"E  c #695F61",
"W  c #E3E4E2",
"Q  c #C8C8C7",
"!  c #CDCDCC",
"~  c #564A4D",
"^  c #18060A",
"/  c #615759",
"(  c #CECECD",
")  c #AEADAE",
"_  c #4C4043",
"`  c #554A4D",
"'  c #AFAEAF",
"]  c #AFAFB0",
"[  c #4C4144",
"{  c #564B4E",
"}  c #B0B0B1",
"|  c #B4B4B5",
" . c #4E4245",
".. c #574D50",
"X. c #B5B5B6",
"o. c #574D4F",
"O. c #302124",
"+. c #1B090D",
"@. c #332528",
"#. c #3A2C2F",
"$. c #2E1E22",
"%. c #5D5254",
"&. c #E7E9E7",
"*. c #786F70",
"=. c #160408",
"-. c #18060B",
";. c #514548",
":. c #E3E5E3",
">. c #756C6E",
",. c #504446",
"<. c #DEDFDD",
"1. c #E2E3E1",
"2. c #756D6E",
"3. c #DEE0DD",
"4. c #D5D6D4",
"5. c #736A6B",
"6. c #4F4245",
"7. c #D9DAD8",
"8. c #ADACAD",
"9. c #B3B2B3",
"0. c #605759",
"q. c #19080C",
"w. c #44373A",
"e. c #ABAAAB",
"r. c #B1B0B1",
"t. c #5F5658",
"y. c #43373A",
"u. c #61575A",
"i. c #44383B",
"p. c #B2B1B2",
"a. c #857F81",
"s. c #888485",
"d. c #4D4245",
"f. c #392B2E",
"g. c #878183",
"h. c #1C0B0F",
"j. c white",
/* pixels */
"                                                                                  . X o O + @ #                                 ",
"                                                                                  . X o O + @ #                                 ",
"                                                                                  . X o O + @ #                                 ",
"                                                                                  $ % o O + @ &                                 ",
"* * * * * * * * * * * * * * * * * * * * * * * * * * * * * * * * * * * * * * * * * = - ; O + : > * * * * * * * * * * * * * * * * ",
", , , , , , , , , , , , , , , , , , , , , , , , , , , , , , , , , , , , , , , , , < 1 2 O 3 4 5 , , , , , , , , , , , , , , , , ",
"6 6 6 6 6 6 6 6 6 6 6 6 6 6 6 6 6 6 6 6 6 6 6 6 6 6 6 6 6 6 6 6 6 6 6 6 6 6 6 6 6 7 8 2 O 3 9 0 6 6 6 6 6 6 6 6 6 6 6 6 6 6 6 6 ",
"6 6 6 6 6 6 6 6 6 6 6 6 6 6 6 6 6 6 6 6 6 6 6 6 6 6 6 6 6 6 6 6 6 6 6 6 6 6 6 6 6 7 8 2 O 3 9 0 6 6 6 6 6 6 6 6 6 6 6 6 6 6 6 6 ",
"6 6 6 6 6 6 6 6 6 6 6 6 6 6 6 6 6 6 6 6 6 6 6 6 6 6 6 6 6 6 6 6 6 6 6 6 6 6 6 6 6 7 8 2 O 3 9 0 6 6 6 6 6 6 6 6 6 6 6 6 6 6 6 6 ",
"6 6 6 6 6 6 6 6 6 6 6 6 6 6 6 6 6 6 6 6 6 6 6 6 6 6 6 6 6 6 6 6 6 6 6 6 6 6 6 6 6 7 8 2 O 3 9 0 6 6 6 6 6 6 6 6 6 6 6 6 6 6 6 6 ",
"6 6 6 6 6 6 6 6 6 6 6 6 6 6 6 6 6 6 6 6 6 6 6 6 6 6 6 6 6 6 6 6 6 6 6 6 6 6 6 6 6 7 8 2 O 3 9 0 6 6 6 6 6 6 6 6 6 6 6 6 6 6 6 6 ",
"6 6 6 6 6 6 6 6 6 6 6 6 6 6 6 6 6 6 6 6 6 6 6 6 6 6 6 6 6 6 6 6 6 6 6 6 6 6 6 6 6 7 8 2 O 3 9 0 6 6 6 6 6 6 6 6 6 6 6 6 6 6 6 6 ",
"6 6 6 6 6 6 6 6 6 6 6 6 6 6 6 6 6 6 6 6 6 6 6 6 6 6 6 6 6 6 6 6 6 6 6 6 6 6 6 6 6 7 8 2 O 3 9 0 6 6 6 6 6 6 6 6 6 6 6 6 6 6 6 6 ",
"6 6 6 6 6 6 6 6 6 6 6 6 6 6 6 6 6 6 6 6 6 6 6 6 6 6 6 6 6 6 6 6 6 6 6 6 6 6 6 6 6 7 8 2 O 3 9 0 6 6 6 6 6 6 6 6 6 6 6 6 6 6 6 6 ",
"6 6 6 6 6 6 6 6 6 6 6 6 6 6 6 6 6 6 6 6 6 6 6 6 6 6 6 6 6 6 6 6 6 6 6 6 6 6 6 6 6 7 8 2 O 3 9 0 6 6 6 6 6 6 6 6 6 6 6 6 6 6 6 6 ",
"6 6 6 6 6 6 6 6 6 6 6 6 6 6 6 6 6 6 6 6 6 6 6 6 6 6 6 6 6 6 6 6 6 6 6 6 6 6 6 6 6 7 8 2 O 3 9 0 6 6 6 6 6 6 6 6 6 6 6 6 6 6 6 6 ",
"0 0 0 0 0 0 0 0 0 0 0 0 0 0 0 0 0 0 0 0 0 0 0 0 0 0 0 0 0 0 0 0 0 0 q q q q q q q w e ; r t y u q q q q q q q q q q q q q q q q ",
"9 9 9 9 9 9 9 9 9 9 9 9 9 9 9 9 9 9 9 9 9 9 9 9 9 9 9 9 9 9 9 9 9 4 i p p p p p p a s d f f g h p p p p p p p p p p p p p p p p ",
"3 3 3 3 3 3 3 3 3 3 3 3 3 3 3 3 3 3 3 3 3 3 3 3 3 3 3 3 3 3 3 3 3 j k l k k k k k z x c c c x x k k k k k k k k k k k k k k k k ",
"O O O O O O O O O O O O O O O O O O O O O O O O O O O O O O O O O r f c v v v v v v v v v v v v v v v v v v v v v v v v v v v v ",
"o o o o o o o o o o o o o o o o o o o o o + O O O b o o o o o o o o n m m m m m m m m m m m m m m m m m m m m m m m m m m m m m ",
"X X X X X X X X X X X X X X X X X X X X M N B O ; V C X X X X X X X Z A A A A A A A A A A A A A A A A A A A A A A A A A A A A A ",
". . . . . . . . . . . . . . . . . . . . S D F O G H J . . . . . . . K K K K K K K K K K K K K K K K K K K K K K K K K K K K K K ",
"                                        K L P O I U Y                                                                           ",
"T T T T T T T T T T T T T T T T T T T T R L P O I E W T T T T T T T T T T T T T T T T T T T T T T T T T T T T T T T T T T T T T ",
"Q Q Q Q Q Q Q Q Q Q Q Q Q Q Q Q Q Q Q Q ! ~ ^ O F / ( Q Q Q Q Q Q Q Q Q Q Q Q Q Q Q Q Q Q Q Q Q Q Q Q Q Q Q Q Q Q Q Q Q Q Q Q Q ",
", , , , , , , , , , , , , , , , , , , , ) _ ; O ^ ` ' , , , , , , , , , , , , , , , , , , , , , , , , , , , , , , , , , , , , , ",
"6 6 6 6 6 6 6 6 6 6 6 6 6 6 6 6 6 6 6 6 ] [ ; O ^ { } 6 6 6 6 6 6 6 6 6 6 6 6 6 6 6 6 6 6 6 6 6 6 6 6 6 6 6 6 6 6 6 6 6 6 6 6 6 ",
"6 6 6 6 6 6 6 6 6 6 6 6 6 6 6 6 6 6 6 6 ] [ ; O ^ { } 6 6 6 6 6 6 6 6 6 6 6 6 6 6 6 6 6 6 6 6 6 6 6 6 6 6 6 6 6 6 6 6 6 6 6 6 6 ",
"6 6 6 6 6 6 6 6 6 6 6 6 6 6 6 6 6 6 6 6 ] [ ; O ^ { } 6 6 6 6 6 6 6 6 6 6 6 6 6 6 6 6 6 6 6 6 6 6 6 6 6 6 6 6 6 6 6 6 6 6 6 6 6 ",
"6 6 6 6 6 6 6 6 6 6 6 6 6 6 6 6 6 6 6 6 ] [ ; O ^ { } 6 6 6 6 6 6 6 6 6 6 6 6 6 6 6 6 6 6 6 6 6 6 6 6 6 6 6 6 6 6 6 6 6 6 6 6 6 ",
"6 6 6 6 6 6 6 6 6 6 6 6 6 6 6 6 6 6 6 6 ] [ ; O ^ { } 6 6 6 6 6 6 6 6 6 6 6 6 6 6 6 6 6 6 6 6 6 6 6 6 6 6 6 6 6 6 6 6 6 6 6 6 6 ",
"6 6 6 6 6 6 6 6 6 6 6 6 6 6 6 6 6 6 6 6 ] [ ; O ^ { } 6 6 6 6 6 6 6 6 6 6 6 6 6 6 6 6 6 6 6 6 6 6 6 6 6 6 6 6 6 6 6 6 6 6 6 6 6 ",
"6 6 6 6 6 6 6 6 6 6 6 6 6 6 6 6 6 6 6 6 ] [ ; O ^ { } 6 6 6 6 6 6 6 6 6 6 6 6 6 6 6 6 6 6 6 6 6 6 6 6 6 6 6 6 6 6 6 6 6 6 6 6 6 ",
"6 6 6 6 6 6 6 6 6 6 6 6 6 6 6 6 6 6 6 6 ] [ ; O ^ { } 6 6 6 6 6 6 6 6 6 6 6 6 6 6 6 6 6 6 6 6 6 6 6 6 6 6 6 6 6 6 6 6 6 6 6 6 6 ",
"6 6 6 6 6 6 6 6 6 6 6 6 6 6 6 6 6 6 6 6 ] [ ; O ^ { } 6 6 6 6 6 6 6 6 6 6 6 6 6 6 6 6 6 6 6 6 6 6 6 6 6 6 6 6 6 6 6 6 6 6 6 6 6 ",
"6 6 6 6 6 6 6 6 6 6 6 6 6 6 6 6 6 6 6 6 ] [ ; O ^ { } 6 6 6 6 6 6 6 6 6 6 6 6 6 6 6 6 6 6 6 6 6 6 6 6 6 6 6 6 6 6 6 6 6 6 6 6 6 ",
"} } } } } } } } } } } } } } } } } } } } |  .; O ^ ..X.} } } } } } } } } } } } } } } } } } } } } } } } } } } } } } } } } } } } } ",
"{ { { { { { { { { { { { { { { { { { { { o.O.+ O +.@...{ { { { { { { { { { { { { { { { { { { { { { { { { { { { { { { { { { { { { ",
"^ ^ ^ ^ ^ ^ ^ ^ ^ ^ ^ ^ ^ ^ ^ ^ ^ ^ ^ ^ ^ + O O O +.^ ^ ^ ^ ^ ^ ^ ^ ^ ^ ^ ^ ^ ^ ^ ^ ^ ^ ^ ^ ^ ^ ^ ^ ^ ^ ^ ^ ^ ^ ^ ^ ^ ^ ^ ^ ^ ^ ",
"O O O O O O O O O O O O O O O O O O O O O O O O O O O O O O O O O O O O O O O O O O O O O O O O O O O O O O O O O O O O O O O O ",
"P P P P P P P P P P P P P P P P P P P P P P P P P P P P P P P P P P P P P P P P P P P P P P P P P P P P P P F b O O O + P P P P ",
"L L L L L L L L L L L L L L L L L L L L L L L L L L L L L L L L L L L L L L L L L L L L L L L L L L L L L L D #.b O + $.%.L L L ",
"K K K K K K K K K K K K K K K K K K K K K K K K K K K K K K K K K K K K K K K K K K K K K K K K K K K K K K &.*.=.O -.;.:.K K K ",
"                                                                                                            R >.=.O ; ,.<.      ",
"                                                                                                            1.2.=.O ; ,.3.      ",
"4.4.4.4.4.4.4.4.4.4.4.4.4.4.4.4.4.4.4.4.4.4.4.4.4.4.4.4.4.4.4.4.4.4.4.4.4.4.4.4.4.4.4.4.4.4.4.4.4.4.4.4.4.4.T 5.=.O ; 6.7.4.4.4.",
"8.8.8.8.8.8.8.8.8.8.8.8.8.8.8.8.8.8.8.8.8.8.8.8.8.8.8.8.8.8.8.8.8.8.8.8.8.8.8.8.8.8.8.8.8.8.8.8.8.8.8.8.8.8.9.0.o O q.w.7 8.8.8.",
"e.e.e.e.e.e.e.e.e.e.e.e.e.e.e.e.e.e.e.e.e.e.e.e.e.e.e.e.e.e.e.e.e.e.e.e.e.e.e.e.e.e.e.e.e.e.e.e.e.e.e.e.e.e.r.t.o O q.y.) e.e.e.",
"6 6 6 6 6 6 6 6 6 6 6 6 6 6 6 6 6 6 6 6 6 6 6 6 6 6 6 6 6 6 6 6 6 6 6 6 6 6 6 6 6 6 6 6 6 6 6 6 6 6 6 6 6 6 r.t.o O q.y.) 6 6 6 ",
"6 6 6 6 6 6 6 6 6 6 6 6 6 6 6 6 6 6 6 6 6 6 6 6 6 6 6 6 6 6 6 6 6 6 6 6 6 6 6 6 6 6 6 6 6 6 6 6 6 6 6 6 6 6 r.t.o O q.y.) 6 6 6 ",
"6 6 6 6 6 6 6 6 6 6 6 6 6 6 6 6 6 6 6 6 6 6 6 6 6 6 6 6 6 6 6 6 6 6 6 6 6 6 6 6 6 6 6 6 6 6 6 6 6 6 6 6 6 6 r.t.o O q.y.) 6 6 6 ",
"6 6 6 6 6 6 6 6 6 6 6 6 6 6 6 6 6 6 6 6 6 6 6 6 6 6 6 6 6 6 6 6 6 6 6 6 6 6 6 6 6 6 6 6 6 6 6 6 6 6 6 6 6 6 r.t.o O q.y.) 6 6 6 ",
"6 6 6 6 6 6 6 6 6 6 6 6 6 6 6 6 6 6 6 6 6 6 6 6 6 6 6 6 6 6 6 6 6 6 6 6 6 6 6 6 6 6 6 6 6 6 6 6 6 6 6 6 6 6 r.t.o O q.y.) 6 6 6 ",
"6 6 6 6 6 6 6 6 6 6 6 6 6 6 6 6 6 6 6 6 6 6 6 6 6 6 6 6 6 6 6 6 6 6 6 6 6 6 6 6 6 6 6 6 6 6 6 6 6 6 6 6 6 6 r.t.o O q.y.) 6 6 6 ",
"6 6 6 6 6 6 6 6 6 6 6 6 6 6 6 6 6 6 6 6 6 6 6 6 6 6 6 6 6 6 6 6 6 6 6 6 6 6 6 6 6 6 6 6 6 6 6 6 6 6 6 6 6 6 r.t.o O q.y.) 6 6 6 ",
"6 6 6 6 6 6 6 6 6 6 6 6 6 6 6 6 6 6 6 6 6 6 6 6 6 6 6 6 6 6 6 6 6 6 6 6 6 6 6 6 6 6 6 6 6 6 6 6 6 6 6 6 6 6 r.t.o O q.y.) 6 6 6 ",
"6 6 6 6 6 6 6 6 6 6 6 6 6 6 6 6 6 6 6 6 6 6 6 6 6 6 6 6 6 6 6 6 6 6 6 6 6 6 6 6 6 6 6 6 6 6 6 6 6 6 6 6 6 6 r.t.o O q.y.) 6 6 6 ",
"' ' ' ' ' ' ' ' ' ' ' ' ' ' ' ' ' ' ' ' ' ' ' ' ' ' ' ' ' ' ' ' ' ' ' ' ' ' ' ' ' ' ' ' ' ' ' ' ' ' ' ' ' ' | u.o O q.i.p.' ' ' ",
"a.a.a.a.a.a.a.a.a.a.a.a.a.a.a.a.a.a.a.a.a.a.a.a.a.a.a.a.a.a.a.a.a.a.a.a.a.a.a.a.a.a.a.a.a.a.a.a.a.a.a.a.a.a.s.d.2 O b f.g.a.a.a.",
"b b b b b b b b b b b b b b b b b b b b b b b b b b b b b b b b b b b b b b b b b b b b b b b b b b b b b b b + O O O h.b b b b ",
"O O O O O O O O O O O O O O O O O O O O O O O O O O O O O O O O O O O O O O O O O O O O O O O O O O O O O O O O O O O O O O O O ",
"O O O O O O O O O O O O O O O O O O O O O O O O O O O O O O O O O O O O O O O O O O O O O O O O O O O O O O O O O O O O O O O O ",
"O O O O O O O O O O O O O O O O O O O O O O O O O O O O O O O O O O O O O O O O O O O O O O O O O O O O O O O O O O O O O O O O "
};
